
<svg xlink="http://www.w3.org/1999/xlink" viewBox="0 0 5000 5000" xmlns="http://www.w3.org/2000/svg" style="transform: scale(1);"><defs><filter id="goo"><feGaussianBlur in="SourceGraphic" stdDeviation="25" result="blur"></feGaussianBlur><feColorMatrix in="blur" type="matrix" values="1 0 0 0 0 0 1 0 0 0 0 0 1 0 0 0 0 0 19 -9" result="good"></feColorMatrix><feComposite in="SourceGraphic" in2="goo" operator="atop"></feComposite></filter><path d="M186,209C206,181 240,169 269,176C302,187 324,215 326,245C326,280 306,309 278,321C245,331 211,321 191,298C171,270 170,235 186,209z" id="P0"></path><path d="M303,257C298,280 280,298 260,302C236,305 214,294 204,276C193,254 197,229 211,214C229,197 254,193 273,202C294,214 305,236 303,257z" id="P1"></path><path d="M217,302C195,285 185,258 191,235C200,208 222,191 246,189C274,189 298,205 307,228C315,254 307,281 289,297C266,313 238,314 217,302z" id="P2"></path><path d="M204,244C208,224 224,208 241,205C262,202 281,212 290,228C299,247 296,268 284,281C268,296 247,299 230,292C212,281 202,262 204,244z" id="P3"></path></defs><rect id="RECT" width="5000" height="5000" fill="#171717"></rect><g id="group" fill="#FF0094" filter="url(#goo)"><use x="-316" y="-237" href="#P2"></use><use x="-354" y="99" href="#P0"></use><use x="-478" y="544" href="#P2"></use><use x="-810" y="1552" href="#P2"></use><use x="-810" y="1828" href="#P1"></use><use x="-740" y="2759" href="#P1"></use><use x="-626" y="3121" href="#P0"></use><use x="-784" y="3898" href="#P3"></use><use x="-351" y="4432" href="#P0"></use><use x="-142" y="5164" href="#P3"></use><use x="-218" y="5494" href="#P2"></use><use x="438" y="-603" href="#P3"></use><use x="149" y="80" href="#P1"></use><use x="-64" y="945" href="#P1"></use><use x="175" y="1128" href="#P3"></use><use x="-285" y="1809" href="#P2"></use><use x="-285" y="2431" href="#P0"></use><use x="-49" y="3027" href="#P0"></use><use x="-217" y="3859" href="#P3"></use><use x="-130" y="4551" href="#P0"></use><use x="22" y="4933" href="#P0"></use><use x="141" y="5617" href="#P2"></use><use x="993" y="-493" href="#P1"></use><use x="449" y="141" href="#P0"></use><use x="739" y="719" href="#P2"></use><use x="867" y="1353" href="#P2"></use><use x="532" y="1838" href="#P2"></use><use x="478" y="2841" href="#P1"></use><use x="882" y="3554" href="#P1"></use><use x="798" y="3976" href="#P0"></use><use x="818" y="4410" href="#P2"></use><use x="624" y="4908" href="#P0"></use><use x="712" y="5750" href="#P2"></use><use x="1394" y="-581" href="#P2"></use><use x="1192" y="-111" href="#P2"></use><use x="1477" y="618" href="#P0"></use><use x="1285" y="982" href="#P0"></use><use x="1648" y="1771" href="#P2"></use><use x="1547" y="2819" href="#P1"></use><use x="1583" y="3586" href="#P0"></use><use x="1068" y="4277" href="#P1"></use><use x="1294" y="4486" href="#P2"></use><use x="1174" y="5058" href="#P2"></use><use x="1509" y="5799" href="#P3"></use><use x="1972" y="-720" href="#P2"></use><use x="2327" y="-78" href="#P0"></use><use x="2451" y="399" href="#P2"></use><use x="1779" y="1333" href="#P0"></use><use x="1808" y="1834" href="#P2"></use><use x="2241" y="2478" href="#P3"></use><use x="1978" y="3678" href="#P0"></use><use x="1934" y="4173" href="#P3"></use><use x="1851" y="4602" href="#P0"></use><use x="1993" y="5058" href="#P0"></use><use x="2244" y="5764" href="#P2"></use><use x="2606" y="-467" href="#P0"></use><use x="2823" y="26" href="#P1"></use><use x="3020" y="229" href="#P1"></use><use x="2709" y="1404" href="#P0"></use><use x="2740" y="1781" href="#P3"></use><use x="2746" y="2379" href="#P1"></use><use x="2588" y="3375" href="#P0"></use><use x="3019" y="3909" href="#P2"></use><use x="3059" y="4494" href="#P2"></use><use x="3172" y="5496" href="#P1"></use><use x="3018" y="5744" href="#P2"></use><use x="3710" y="-684" href="#P2"></use><use x="3824" y="-123" href="#P0"></use><use x="3939" y="617" href="#P1"></use><use x="3950" y="1286" href="#P3"></use><use x="3872" y="2065" href="#P3"></use><use x="3342" y="2300" href="#P2"></use><use x="3812" y="3679" href="#P3"></use><use x="3528" y="4121" href="#P2"></use><use x="3347" y="4411" href="#P2"></use><use x="3249" y="5099" href="#P0"></use><use x="3241" y="5553" href="#P0"></use><use x="4433" y="-591" href="#P1"></use><use x="4579" y="191" href="#P2"></use><use x="3965" y="392" href="#P0"></use><use x="4501" y="1260" href="#P2"></use><use x="4617" y="1679" href="#P1"></use><use x="4493" y="2455" href="#P3"></use><use x="4089" y="3060" href="#P0"></use><use x="4179" y="4073" href="#P3"></use><use x="4193" y="4503" href="#P1"></use><use x="4129" y="5135" href="#P0"></use><use x="3969" y="5532" href="#P2"></use><use x="4980" y="-483" href="#P1"></use><use x="4868" y="-106" href="#P0"></use><use x="4876" y="545" href="#P1"></use><use x="4739" y="1127" href="#P0"></use><use x="5155" y="2193" href="#P1"></use><use x="4797" y="2658" href="#P2"></use><use x="5226" y="3275" href="#P2"></use><use x="4768" y="3763" href="#P3"></use><use x="5010" y="4579" href="#P3"></use><use x="4697" y="5254" href="#P2"></use><use x="4568" y="5632" href="#P2"></use><use x="5466" y="-508" href="#P2"></use><use x="5202" y="104" href="#P3"></use><use x="5820" y="1004" href="#P2"></use><use x="5618" y="1511" href="#P2"></use><use x="5531" y="2014" href="#P1"></use><use x="5598" y="2471" href="#P0"></use><use x="5531" y="2960" href="#P1"></use><use x="5638" y="3752" href="#P1"></use><use x="5444" y="4314" href="#P2"></use><use x="5293" y="5236" href="#P2"></use><use x="5390" y="5626" href="#P3"></use></g></svg>
